<svg width="19" height="22" viewBox="0 0 19 22" fill="none" xmlns="http://www.w3.org/2000/svg">
    <path d="M9.99992 20H14.9999V22H2.99992V20H7.99992V18.95C6.4144 18.7908 4.88986 18.2551 3.55328 17.3874C2.2167 16.5198 1.10676 15.3454 0.315918 13.962L2.05292 12.97C2.6637 14.0372 3.51229 14.9493 4.53277 15.6354C5.55325 16.3215 6.71815 16.7631 7.93699 16.9259C9.15583 17.0887 10.3958 16.9684 11.5606 16.5742C12.7254 16.1801 13.7836 15.5227 14.6531 14.6532C15.5226 13.7837 16.18 12.7254 16.5741 11.5606C16.9683 10.3959 17.0886 9.1559 16.9258 7.93705C16.763 6.71821 16.3214 5.55331 15.6353 4.53283C14.9493 3.51235 14.0372 2.66376 12.9699 2.05298L13.9619 0.315979C15.493 1.19053 16.7654 2.45448 17.6502 3.97961C18.535 5.50474 19.0007 7.23677 18.9999 8.99998C18.9999 14.185 15.0529 18.449 9.99992 18.95V20ZM8.99992 16C8.08066 16 7.17041 15.8189 6.32113 15.4671C5.47185 15.1154 4.70018 14.5997 4.05017 13.9497C3.40016 13.2997 2.88454 12.528 2.53276 11.6788C2.18098 10.8295 1.99992 9.91923 1.99992 8.99998C1.99992 8.08073 2.18098 7.17047 2.53276 6.3212C2.88454 5.47192 3.40016 4.70024 4.05017 4.05023C4.70018 3.40022 5.47185 2.88461 6.32113 2.53282C7.17041 2.18104 8.08066 1.99998 8.99992 1.99998C10.8564 1.99998 12.6369 2.73748 13.9497 4.05023C15.2624 5.36299 15.9999 7.14346 15.9999 8.99998C15.9999 10.8565 15.2624 12.637 13.9497 13.9497C12.6369 15.2625 10.8564 16 8.99992 16ZM8.99992 14C10.326 14 11.5978 13.4732 12.5355 12.5355C13.4731 11.5978 13.9999 10.3261 13.9999 8.99998C13.9999 7.6739 13.4731 6.40213 12.5355 5.46445C11.5978 4.52676 10.326 3.99998 8.99992 3.99998C7.67384 3.99998 6.40207 4.52676 5.46438 5.46445C4.5267 6.40213 3.99992 7.6739 3.99992 8.99998C3.99992 10.3261 4.5267 11.5978 5.46438 12.5355C6.40207 13.4732 7.67384 14 8.99992 14Z" fill="#473F97"/>
</svg>
