<svg width="20" height="20" viewBox="0 0 20 20" fill="none" xmlns="http://www.w3.org/2000/svg">
    <path d="M18 10C17.9998 8.21688 17.4039 6.48494 16.3069 5.07919C15.2099 3.67345 13.6747 2.67448 11.9451 2.24094C10.2155 1.80739 8.39064 1.96411 6.76028 2.68621C5.12992 3.40831 3.78753 4.65439 2.94629 6.22659C2.10504 7.79879 1.81316 9.60698 2.11699 11.364C2.42083 13.1211 3.30296 14.7262 4.62331 15.9246C5.94366 17.1231 7.62653 17.846 9.40471 17.9787C11.1829 18.1114 12.9544 17.6462 14.438 16.657L15.548 18.321C13.9062 19.4187 11.975 20.0032 10 20C4.477 20 0 15.523 0 10C0 4.477 4.477 0 10 0C15.523 0 20 4.477 20 10V11.5C20.0001 12.2488 19.7601 12.9778 19.3152 13.5801C18.8703 14.1823 18.244 14.626 17.5283 14.846C16.8126 15.066 16.0453 15.0507 15.3389 14.8023C14.6326 14.5539 14.0245 14.0855 13.604 13.466C12.9366 14.16 12.083 14.6465 11.1457 14.8671C10.2085 15.0877 9.22747 15.033 8.32056 14.7096C7.41366 14.3861 6.61943 13.8077 6.03331 13.0438C5.44718 12.2799 5.09408 11.363 5.01644 10.4033C4.9388 9.44358 5.13991 8.48186 5.59562 7.63367C6.05133 6.78549 6.74225 6.08692 7.58537 5.6219C8.42849 5.15688 9.38794 4.94519 10.3485 5.01227C11.309 5.07934 12.2297 5.42232 13 6H15V11.5C15 11.8978 15.158 12.2794 15.4393 12.5607C15.7206 12.842 16.1022 13 16.5 13C16.8978 13 17.2794 12.842 17.5607 12.5607C17.842 12.2794 18 11.8978 18 11.5V10ZM10 7C9.20435 7 8.44129 7.31607 7.87868 7.87868C7.31607 8.44129 7 9.20435 7 10C7 10.7956 7.31607 11.5587 7.87868 12.1213C8.44129 12.6839 9.20435 13 10 13C10.7956 13 11.5587 12.6839 12.1213 12.1213C12.6839 11.5587 13 10.7956 13 10C13 9.20435 12.6839 8.44129 12.1213 7.87868C11.5587 7.31607 10.7956 7 10 7Z" fill="#473F97"/>
</svg>
