<svg width="390" height="260" viewBox="0 0 390 260" fill="none" xmlns="http://www.w3.org/2000/svg">
    <path d="M0 25C0 11.1929 11.1929 0 25 0H365C378.807 0 390 11.1929 390 25V235C390 248.807 378.807 260 365 260H25C11.1929 260 0 248.807 0 235V25Z" fill="#473F97"/>
    <g opacity="0.09" clip-path="url(#clip0_6_138)">
        <path d="M278.516 63.3467L253.778 70.7441C253.562 70.8319 253.387 70.9953 253.284 71.2036C253.181 71.4119 253.158 71.6506 253.219 71.8747C253.28 72.0989 253.421 72.293 253.615 72.4204C253.809 72.5479 254.044 72.5999 254.273 72.5666L279.012 65.1826C280.178 64.8342 279.682 62.9982 278.516 63.3467Z" fill="white"/>
        <path d="M253.55 70.5296L194.786 50.5887C193.754 50.2403 193.164 51.7814 194.062 52.3175L240.966 80.9691C242.011 81.599 242.963 79.964 241.918 79.3208L195.014 50.6825L194.29 52.4113L253.041 72.3522C254.206 72.7543 254.702 70.9183 253.55 70.5296Z" fill="white"/>
        <path d="M279.682 60.72C252.817 55.1451 225.858 49.9812 198.806 45.2283C191.105 43.8792 183.39 42.5391 175.662 41.2079C174.469 41.0069 173.96 42.8295 175.166 43.0305C202.237 47.5601 229.235 52.4739 256.163 57.7718C263.846 59.2816 271.521 60.8362 279.186 62.4354C280.379 62.6766 280.888 60.854 279.682 60.6128V60.72Z" fill="white"/>
        <path d="M241.609 80.031C232.05 80.6386 222.526 81.5632 213.038 82.8051C211.845 82.9659 211.818 84.8555 213.038 84.6947C222.526 83.4528 232.05 82.5281 241.609 81.9206C242.829 81.8536 242.829 79.9506 241.609 80.031Z" fill="white"/>
        <path d="M172.634 43.2315C186.158 58.5117 200.538 73.0126 215.705 86.6647C216.616 87.4821 217.956 86.1554 217.045 85.3245C201.878 71.6725 187.498 57.1715 173.974 41.8914C173.17 40.9801 171.829 42.3203 172.634 43.2315Z" fill="white"/>
        <path d="M255.077 73.2501C255.064 82.0459 255.574 90.8348 256.605 99.57C256.739 100.763 258.642 100.776 258.495 99.57C257.477 90.8336 256.967 82.0456 256.967 73.2501C256.939 73.0189 256.828 72.8059 256.654 72.6513C256.48 72.4967 256.255 72.4113 256.022 72.4113C255.789 72.4113 255.565 72.4967 255.391 72.6513C255.216 72.8059 255.105 73.0189 255.077 73.2501Z" fill="white"/>
        <path d="M241.891 80.6207L255.787 100.535C256.484 101.54 258.133 100.535 257.422 99.5833L243.525 79.6692C242.842 78.6776 241.194 79.6692 241.891 80.6207Z" fill="white"/>
        <path d="M256.713 99.3555C248.395 92.8872 239.8 86.7808 230.929 81.0361C229.897 80.3661 228.945 82.0144 229.977 82.6711C238.688 88.3085 247.153 94.3167 255.372 100.696C256.337 101.433 257.677 100.106 256.713 99.3555Z" fill="white"/>
        <path d="M1.39374 201.995C-1.11228 180.406 8.79113 158.642 24.055 143.177C39.3189 127.712 59.4341 117.876 80.0182 110.934C87.4693 108.428 95.1213 106.217 101.889 102.237C114.459 94.8259 122.889 81.8938 128.236 68.3185C132.256 58.08 133.154 43.4593 123.103 38.9833C116.081 35.8743 107.424 40.5245 104.033 47.4127C100.643 54.3009 101.353 62.5425 103.497 69.9266C109.394 90.6313 124.939 107.611 143.298 118.935C161.658 130.259 182.591 136.463 203.604 141.301C217.755 144.544 232.255 147.238 246.715 145.965C261.175 144.692 275.755 139.036 285.176 127.994C287.012 125.836 288.714 123.143 288.205 120.355C287.79 118.117 286.034 116.335 284.359 114.834L266.133 97.8144" stroke="white" stroke-width="2.01017" stroke-miterlimit="10" stroke-linecap="round" stroke-dasharray="13.05 13.05"/>
        <path d="M213.105 57.5172L217.367 65.5578C217.93 66.6433 219.565 65.6785 219.002 64.6064C217.581 61.9261 216.161 59.2459 214.754 56.4987C214.177 55.4132 212.542 56.378 213.105 57.4501V57.5172Z" fill="white"/>
        <path d="M220.288 58.1604L226.118 71.4811C226.178 71.5963 226.263 71.6975 226.365 71.7784C226.467 71.8592 226.585 71.9178 226.711 71.9506C226.837 71.9834 226.968 71.9896 227.097 71.9687C227.226 71.9479 227.348 71.9005 227.458 71.8296C227.569 71.7645 227.666 71.6783 227.743 71.5757C227.821 71.4731 227.877 71.3562 227.91 71.2318C227.942 71.1073 227.95 70.9777 227.932 70.8503C227.914 70.7229 227.871 70.6003 227.806 70.4895L221.977 57.1553C221.912 57.0441 221.825 56.947 221.722 56.8698C221.619 56.7925 221.502 56.7366 221.377 56.7054C221.252 56.6742 221.122 56.6682 220.995 56.688C220.868 56.7077 220.746 56.7527 220.637 56.8203C220.415 56.9538 220.255 57.1699 220.192 57.4211C220.129 57.6723 220.169 57.9381 220.301 58.1604H220.288Z" fill="white"/>
        <path d="M231.384 64.6332C233.171 68.6357 235.002 72.656 236.879 76.6942C236.943 76.8054 237.03 76.9025 237.133 76.9798C237.236 77.057 237.353 77.1129 237.478 77.1442C237.603 77.1754 237.733 77.1813 237.86 77.1615C237.987 77.1418 238.109 77.0968 238.219 77.0292C238.441 76.8957 238.6 76.6796 238.663 76.4284C238.726 76.1772 238.687 75.9114 238.554 75.6891C236.722 71.6777 234.891 67.6574 233.059 63.6281C232.923 63.4295 232.716 63.2901 232.481 63.2381C232.245 63.186 231.999 63.2252 231.792 63.3477C231.584 63.4701 231.431 63.6668 231.363 63.8979C231.294 64.1291 231.316 64.3775 231.424 64.593L231.384 64.6332Z" fill="white"/>
        <path d="M240.082 67.9969C242.083 74.0184 244.222 79.9819 246.501 85.8874C246.943 87.013 248.779 86.5306 248.337 85.3781C246.041 79.4727 243.896 73.5092 241.904 67.4876C241.529 66.3351 239.693 66.831 240.082 67.9969Z" fill="white"/>
        <path d="M247.064 72.9017C248.904 78.548 250.745 84.181 252.585 89.8005C252.974 90.953 254.796 90.4572 254.421 89.2913C252.572 83.6628 250.727 78.0343 248.886 72.4058C248.511 71.2533 246.675 71.7492 247.064 72.9017Z" fill="white"/>
        <path d="M253.617 73.5315C254.476 76.4123 255.02 79.378 255.238 82.3763C255.245 82.6265 255.347 82.8646 255.524 83.0416C255.701 83.2186 255.94 83.321 256.19 83.3277C256.44 83.3242 256.678 83.2224 256.854 83.0444C257.029 82.8663 257.128 82.6263 257.128 82.3763C256.911 79.1968 256.345 76.0509 255.439 72.9955C255.352 72.7804 255.188 72.605 254.98 72.5021C254.771 72.3992 254.533 72.3761 254.309 72.4371C254.085 72.4981 253.89 72.6389 253.763 72.8331C253.636 73.0273 253.583 73.2614 253.617 73.4913V73.5315Z" fill="white"/>
    </g>
    <g opacity="0.09" clip-path="url(#clip1_6_138)">
        <path d="M296.442 169.534C291.91 179.211 290.523 190.044 290.853 200.632C290.997 206.094 291.562 211.538 292.544 216.914C293.246 220.669 294.607 225.157 298.218 227.123C302.099 229.232 306.767 227.232 309.439 224.136C312.238 220.888 313.591 216.543 314.437 212.434C316.474 202.828 316.199 192.876 313.633 183.396C312.155 177.956 309.734 172.817 306.48 168.21C305.11 166.328 303.3 164.27 300.822 163.992C298.345 163.713 296.189 165.535 294.506 167.214C294.44 167.294 294.406 167.395 294.411 167.498C294.415 167.6 294.459 167.698 294.532 167.771C294.605 167.844 294.702 167.887 294.805 167.891C294.909 167.896 295.01 167.862 295.089 167.796C296.78 166.109 298.835 164.262 301.381 164.928C303.706 165.527 305.304 167.864 306.556 169.745C309.169 173.706 311.189 178.026 312.551 182.569C315.104 191.253 315.664 200.4 314.191 209.33C313.549 213.43 312.602 217.648 310.479 221.268C308.433 224.76 304.56 228.017 300.197 226.971C295.833 225.925 294.277 221.065 293.483 217.226C292.526 212.244 291.961 207.195 291.791 202.125C291.309 191.157 292.527 179.92 297.212 169.914C297.432 169.442 296.73 169.07 296.501 169.501L296.442 169.534Z" fill="white"/>
        <path d="M273.814 192.887C280.49 199.758 288.599 205.081 297.567 208.478C301.801 210.068 306.214 211.139 310.707 211.667C315.155 212.173 320.009 212.266 324.339 211.118C328.474 210.03 332.127 206.9 331.949 202.302C331.772 197.704 328.262 194.017 324.812 191.453C316.686 185.404 306.37 182.923 296.434 182.071C290.514 181.573 284.434 181.43 278.676 183.041C276.257 183.725 273.602 184.678 271.784 186.5C270.914 187.365 270.314 188.463 270.058 189.661C269.801 190.859 269.898 192.106 270.338 193.25C270.524 193.739 271.311 193.528 271.125 193.03C269.011 187.378 275.437 184.687 279.784 183.615C284.629 182.417 289.694 182.442 294.641 182.771C304.061 183.413 313.549 185.421 321.7 190.364C325.446 192.651 329.48 195.848 330.765 200.227C331.1 201.29 331.193 202.413 331.038 203.517C330.883 204.62 330.484 205.675 329.869 206.605C328.469 208.508 326.416 209.832 324.102 210.325C319.941 211.263 315.648 211.466 311.418 210.924C307.274 210.502 303.194 209.601 299.258 208.241C289.807 204.939 281.258 199.486 274.287 192.313C273.924 191.934 273.34 192.516 273.712 192.887H273.814Z" fill="white"/>
        <path d="M276.105 213.093C283.09 203.5 290.235 194.009 298.133 185.142C301.742 180.96 305.632 177.028 309.777 173.373C311.95 171.489 314.281 169.795 316.745 168.311C318.808 167.088 321.151 165.78 323.645 166.025C326.453 166.303 328.093 168.767 328.271 171.399C328.297 173.885 327.716 176.34 326.58 178.553C324.389 183.446 321.109 187.833 317.938 192.128C311.798 200.438 304.907 208.385 296.535 214.535C294.243 216.23 291.839 217.769 289.339 219.142C286.878 220.491 284.265 221.926 281.365 222.094C279.929 222.199 278.495 221.863 277.255 221.133C276.496 220.737 275.883 220.111 275.505 219.344C275.074 218.306 275.556 217.328 276.004 216.391C277.419 213.503 279.092 210.747 281.001 208.157C281.314 207.727 280.604 207.313 280.291 207.744C278.381 210.332 276.711 213.088 275.302 215.978C274.65 216.974 274.405 218.182 274.617 219.352C274.998 220.377 275.733 221.232 276.689 221.765C281.272 224.701 286.836 221.554 290.954 219.192C300.662 213.573 308.627 205.432 315.477 196.675C319.104 192.22 322.416 187.518 325.387 182.603C327.67 178.654 330.596 172.977 328.288 168.421C327.797 167.446 327.043 166.628 326.11 166.058C325.178 165.489 324.104 165.191 323.011 165.198C320.474 165.198 318.107 166.523 315.984 167.805C310.911 170.851 306.623 174.9 302.564 179.11C292.569 189.512 283.834 201.045 275.361 212.688C275.057 213.118 275.767 213.531 276.071 213.101L276.105 213.093Z" fill="white"/>
        <path d="M300.797 193.663C300.347 194.147 300.066 194.764 299.996 195.421C299.926 196.078 300.07 196.74 300.408 197.308C300.722 197.898 301.2 198.385 301.785 198.71C302.371 199.035 303.038 199.184 303.706 199.138C306.928 198.784 306.471 193.452 303.418 193.233C302.613 193.175 301.806 193.326 301.077 193.672C300.348 194.018 299.721 194.547 299.258 195.207C298.962 195.637 299.672 196.051 299.968 195.62C300.277 195.171 300.68 194.793 301.148 194.512C301.616 194.231 302.14 194.054 302.683 193.992C302.979 193.924 303.288 193.929 303.582 194.005C303.876 194.082 304.148 194.228 304.374 194.431C304.781 194.853 305.042 195.394 305.118 195.975C305.224 196.428 305.164 196.905 304.95 197.319C304.737 197.733 304.383 198.058 303.951 198.236C303.477 198.328 302.987 198.283 302.537 198.107C302.088 197.93 301.698 197.63 301.414 197.24C300.788 196.397 300.569 194.971 301.414 194.211C301.812 193.857 301.228 193.283 300.839 193.629L300.797 193.663Z" fill="white"/>
        <path d="M270.448 192.583C270.341 193.212 270.407 193.858 270.639 194.453C270.871 195.047 271.261 195.568 271.767 195.958C272.265 196.382 272.897 196.615 273.552 196.616C273.871 196.603 274.186 196.527 274.476 196.393C274.766 196.258 275.027 196.067 275.243 195.831C275.673 195.324 275.908 194.681 275.908 194.017C275.908 193.353 275.673 192.711 275.243 192.204C274.473 191.191 273.061 190.398 271.793 190.963C270.389 191.588 270.101 193.376 270.668 194.659C270.724 194.752 270.815 194.82 270.921 194.848C271.026 194.877 271.139 194.863 271.235 194.81C271.325 194.751 271.39 194.661 271.417 194.556C271.444 194.451 271.43 194.34 271.378 194.245C271.186 193.838 271.136 193.379 271.235 192.94C271.335 192.501 271.579 192.108 271.928 191.824C272.774 191.267 273.771 191.824 274.372 192.431C274.74 192.756 274.985 193.198 275.065 193.682C275.145 194.166 275.055 194.663 274.811 195.089C274.687 195.267 274.529 195.418 274.346 195.534C274.163 195.651 273.958 195.73 273.744 195.766C273.531 195.803 273.311 195.798 273.1 195.749C272.888 195.701 272.688 195.611 272.511 195.485C272.058 195.203 271.696 194.795 271.471 194.311C271.246 193.827 271.167 193.288 271.243 192.76C271.271 192.656 271.257 192.545 271.203 192.452C271.149 192.359 271.06 192.291 270.956 192.263C270.851 192.235 270.74 192.249 270.647 192.303C270.553 192.357 270.485 192.445 270.457 192.549L270.448 192.583Z" fill="white"/>
        <path d="M284.13 220.314C283.386 222.601 285.585 225.376 288.02 224.887C288.564 224.77 289.047 224.46 289.38 224.015C289.713 223.57 289.873 223.019 289.829 222.466C289.782 221.884 289.539 221.336 289.14 220.91C288.741 220.484 288.209 220.206 287.631 220.12C287.35 220.111 287.072 220.18 286.827 220.318C286.582 220.457 286.381 220.66 286.244 220.905C286.091 221.173 286.01 221.477 286.01 221.786C286.01 222.096 286.091 222.399 286.244 222.668C286.489 223.132 287.2 222.719 286.946 222.255C286.692 221.791 286.946 220.896 287.606 220.939C287.982 221.017 288.322 221.215 288.577 221.502C288.831 221.789 288.986 222.151 289.018 222.533C289.045 222.904 288.932 223.271 288.7 223.562C288.468 223.853 288.134 224.046 287.766 224.102C287.355 224.136 286.941 224.071 286.56 223.913C286.179 223.754 285.841 223.507 285.576 223.191C285.247 222.842 285.014 222.414 284.9 221.948C284.785 221.482 284.794 220.995 284.925 220.534C285.086 220.027 284.299 219.816 284.13 220.314Z" fill="white"/>
        <path d="M325.024 178.739C324.009 179.945 324.263 181.607 324.77 182.957C325.076 183.768 325.464 184.545 325.928 185.277C326.309 185.955 326.845 186.533 327.493 186.964C327.799 187.154 328.154 187.251 328.514 187.244C328.874 187.236 329.224 187.125 329.522 186.922C329.825 186.675 330.069 186.363 330.236 186.01C330.402 185.657 330.488 185.271 330.486 184.881C330.508 184.002 330.422 183.124 330.233 182.265C330.124 181.474 329.786 180.733 329.26 180.131C328.947 179.815 328.562 179.581 328.137 179.449C327.713 179.317 327.262 179.29 326.825 179.371C325.891 179.633 325.06 180.171 324.44 180.915C324.402 180.953 324.371 180.998 324.35 181.047C324.329 181.097 324.319 181.15 324.318 181.203C324.318 181.257 324.328 181.31 324.348 181.36C324.368 181.41 324.398 181.455 324.436 181.493C324.474 181.531 324.519 181.562 324.568 181.583C324.618 181.604 324.671 181.615 324.725 181.615C324.779 181.615 324.832 181.605 324.882 181.585C324.932 181.565 324.977 181.535 325.015 181.497C325.912 180.654 327.205 179.557 328.457 180.51C329.455 181.27 329.556 182.881 329.649 184.028C329.779 184.717 329.65 185.429 329.286 186.028C329.121 186.239 328.881 186.378 328.616 186.416C328.351 186.454 328.082 186.387 327.865 186.23C327.343 185.859 326.912 185.375 326.605 184.813C326.255 184.278 325.953 183.713 325.7 183.126C325.235 182.012 324.728 180.375 325.607 179.329C325.937 178.924 325.362 178.342 325.024 178.747V178.739Z" fill="white"/>
        <path d="M295.876 166.067C295.453 166.107 295.053 166.273 294.727 166.544C294.401 166.815 294.165 167.178 294.049 167.586C293.794 168.613 293.874 169.694 294.277 170.673C294.742 172.065 295.969 174.183 297.778 173.786C298.167 173.659 298.514 173.429 298.783 173.122C299.052 172.815 299.234 172.441 299.309 172.04C299.541 171.058 299.541 170.036 299.309 169.054C299.156 168.054 298.729 167.117 298.074 166.345C297.727 166.024 297.269 165.85 296.795 165.859C296.322 165.869 295.871 166.061 295.537 166.396C294.007 167.602 293.846 169.88 293.745 171.669C293.745 172.192 294.531 172.192 294.59 171.669C294.565 170.322 294.855 168.987 295.436 167.771C295.723 167.282 296.281 166.658 296.907 166.658C297.685 166.658 298.074 167.78 298.277 168.345C298.544 169.103 298.67 169.904 298.649 170.707C298.678 171.381 298.488 172.047 298.108 172.605C297.102 173.829 295.757 171.973 295.351 171.146C294.939 170.349 294.716 169.469 294.7 168.573C294.7 167.856 295.021 166.927 295.859 166.885C296.383 166.835 296.383 166.042 295.859 166.042L295.876 166.067Z" fill="white"/>
        <path d="M308.365 218.5C308.325 219.462 308.489 220.421 308.846 221.315C309.203 222.209 309.745 223.018 310.437 223.689C311.689 224.971 313.743 226.034 315.511 225.241C317.675 224.296 316.805 221.31 316.069 219.673C315.333 218.036 313.321 215.885 311.198 216.56C310.707 216.745 310.271 217.05 309.928 217.446C309.586 217.842 309.348 218.318 309.236 218.829C308.963 220.194 309.123 221.609 309.693 222.879C309.879 223.368 310.665 223.157 310.479 222.66C309.896 221.141 309.346 218.669 311.012 217.598C312.678 216.526 314.395 218.332 315.139 219.639C315.571 220.491 315.857 221.41 315.984 222.356C316.111 223.2 316.06 224.111 315.223 224.516C313.811 225.199 312.103 224.246 311.097 223.276C310.451 222.672 309.942 221.937 309.607 221.121C309.271 220.304 309.116 219.425 309.152 218.543C309.194 218.02 308.374 218.02 308.306 218.543L308.365 218.5Z" fill="white"/>
    </g>
    <defs>
        <clipPath id="clip0_6_138">
            <rect width="289.277" height="166" fill="white" transform="translate(0 37)"/>
        </clipPath>
        <clipPath id="clip1_6_138">
            <rect width="62" height="64" fill="white" transform="translate(270 164)"/>
        </clipPath>
    </defs>
</svg>
