<svg width="390" height="844" viewBox="0 0 390 844" fill="none" xmlns="http://www.w3.org/2000/svg">
    <g clip-path="url(#clip0_79_126)">
        <rect width="390" height="844" rx="25" fill="#FAFAFA"/>
        <path d="M0 25C0 11.1929 11.1929 0 25 0H365C378.807 0 390 11.1929 390 25V819C390 832.807 378.807 844 365 844H25C11.1929 844 0 832.807 0 819V25Z" fill="#473F97"/>
        <g opacity="0.09" clip-path="url(#clip1_79_126)">
            <path d="M303.442 217.534C298.91 227.211 297.523 238.044 297.853 248.632C297.997 254.094 298.562 259.538 299.544 264.914C300.246 268.669 301.607 273.157 305.218 275.123C309.099 277.232 313.767 275.232 316.439 272.136C319.238 268.888 320.591 264.543 321.437 260.434C323.474 250.828 323.199 240.876 320.633 231.396C319.155 225.956 316.734 220.817 313.48 216.21C312.11 214.328 310.3 212.27 307.822 211.992C305.345 211.713 303.188 213.535 301.506 215.214C301.44 215.294 301.406 215.395 301.411 215.498C301.415 215.6 301.459 215.698 301.532 215.771C301.605 215.844 301.702 215.887 301.805 215.891C301.909 215.896 302.01 215.862 302.089 215.796C303.78 214.109 305.835 212.262 308.381 212.928C310.706 213.527 312.304 215.864 313.556 217.745C316.169 221.706 318.189 226.026 319.551 230.569C322.104 239.253 322.664 248.4 321.191 257.33C320.549 261.43 319.602 265.648 317.479 269.268C315.433 272.76 311.56 276.017 307.197 274.971C302.833 273.925 301.277 269.065 300.483 265.226C299.526 260.244 298.961 255.195 298.791 250.125C298.309 239.157 299.527 227.92 304.212 217.914C304.432 217.442 303.73 217.07 303.501 217.501L303.442 217.534Z" fill="white"/>
            <path d="M280.814 240.887C287.49 247.758 295.599 253.081 304.567 256.478C308.802 258.068 313.214 259.139 317.708 259.667C322.156 260.173 327.009 260.266 331.339 259.118C335.474 258.03 339.127 254.9 338.949 250.302C338.772 245.704 335.262 242.017 331.812 239.453C323.686 233.404 313.37 230.923 303.434 230.071C297.514 229.573 291.435 229.43 285.676 231.041C283.258 231.725 280.602 232.678 278.784 234.5C277.914 235.365 277.314 236.463 277.058 237.661C276.801 238.859 276.898 240.106 277.338 241.25C277.524 241.739 278.311 241.528 278.125 241.03C276.011 235.378 282.437 232.687 286.784 231.615C291.629 230.417 296.694 230.442 301.641 230.771C311.061 231.413 320.549 233.421 328.7 238.364C332.447 240.651 336.48 243.848 337.765 248.227C338.1 249.29 338.193 250.413 338.038 251.517C337.883 252.62 337.484 253.675 336.869 254.605C335.469 256.508 333.416 257.832 331.102 258.325C326.942 259.263 322.649 259.466 318.418 258.924C314.274 258.502 310.194 257.601 306.258 256.242C296.807 252.939 288.258 247.486 281.287 240.313C280.924 239.934 280.34 240.516 280.712 240.887H280.814Z" fill="white"/>
            <path d="M283.105 261.093C290.09 251.5 297.235 242.009 305.133 233.142C308.742 228.96 312.633 225.028 316.777 221.373C318.95 219.489 321.281 217.795 323.745 216.311C325.809 215.088 328.151 213.78 330.645 214.025C333.453 214.303 335.093 216.767 335.271 219.399C335.297 221.885 334.716 224.34 333.58 226.553C331.39 231.446 328.109 235.833 324.938 240.128C318.798 248.438 311.907 256.385 303.535 262.535C301.243 264.23 298.839 265.769 296.339 267.142C293.878 268.491 291.265 269.926 288.365 270.094C286.929 270.199 285.495 269.863 284.255 269.133C283.496 268.737 282.883 268.111 282.505 267.344C282.074 266.306 282.556 265.328 283.004 264.391C284.419 261.503 286.092 258.747 288.001 256.157C288.314 255.727 287.604 255.313 287.291 255.744C285.381 258.332 283.712 261.088 282.302 263.978C281.65 264.974 281.405 266.182 281.617 267.352C281.998 268.377 282.733 269.232 283.689 269.765C288.272 272.701 293.836 269.554 297.954 267.192C307.662 261.573 315.627 253.432 322.477 244.675C326.104 240.22 329.416 235.518 332.387 230.603C334.671 226.654 337.596 220.977 335.288 216.421C334.797 215.446 334.043 214.628 333.111 214.058C332.178 213.489 331.105 213.191 330.011 213.198C327.474 213.198 325.107 214.523 322.984 215.805C317.911 218.851 313.623 222.9 309.564 227.11C299.569 237.512 290.834 249.045 282.361 260.688C282.057 261.118 282.767 261.531 283.071 261.101L283.105 261.093Z" fill="white"/>
            <path d="M307.797 241.663C307.347 242.147 307.066 242.764 306.996 243.421C306.926 244.078 307.07 244.74 307.408 245.308C307.722 245.898 308.2 246.385 308.785 246.71C309.371 247.035 310.038 247.184 310.706 247.138C313.928 246.784 313.471 241.452 310.418 241.233C309.613 241.175 308.806 241.326 308.077 241.672C307.348 242.018 306.721 242.547 306.258 243.207C305.962 243.637 306.672 244.051 306.968 243.62C307.277 243.171 307.68 242.793 308.148 242.512C308.616 242.231 309.14 242.054 309.683 241.992C309.979 241.924 310.288 241.929 310.582 242.005C310.876 242.082 311.148 242.228 311.374 242.431C311.781 242.853 312.042 243.394 312.118 243.975C312.224 244.428 312.164 244.905 311.951 245.319C311.737 245.733 311.383 246.058 310.951 246.236C310.477 246.328 309.987 246.283 309.537 246.107C309.088 245.93 308.698 245.63 308.414 245.24C307.789 244.397 307.569 242.971 308.414 242.211C308.812 241.857 308.228 241.283 307.839 241.629L307.797 241.663Z" fill="white"/>
            <path d="M277.448 240.583C277.341 241.212 277.407 241.858 277.639 242.453C277.871 243.047 278.261 243.568 278.767 243.958C279.265 244.382 279.897 244.615 280.552 244.616C280.871 244.603 281.186 244.527 281.476 244.393C281.766 244.258 282.027 244.067 282.243 243.831C282.673 243.324 282.908 242.681 282.908 242.017C282.908 241.353 282.673 240.711 282.243 240.204C281.473 239.191 280.061 238.398 278.793 238.963C277.389 239.588 277.101 241.376 277.668 242.659C277.724 242.752 277.815 242.82 277.921 242.848C278.026 242.877 278.139 242.863 278.235 242.81C278.325 242.751 278.39 242.661 278.417 242.556C278.444 242.451 278.43 242.34 278.378 242.245C278.186 241.838 278.136 241.379 278.235 240.94C278.335 240.501 278.579 240.108 278.928 239.824C279.774 239.267 280.771 239.824 281.372 240.431C281.74 240.756 281.985 241.198 282.065 241.682C282.145 242.166 282.055 242.663 281.812 243.089C281.687 243.267 281.529 243.418 281.346 243.534C281.163 243.651 280.958 243.73 280.745 243.766C280.531 243.803 280.311 243.798 280.1 243.749C279.888 243.701 279.688 243.611 279.511 243.485C279.058 243.203 278.697 242.795 278.471 242.311C278.246 241.827 278.167 241.288 278.243 240.76C278.271 240.656 278.257 240.545 278.203 240.452C278.149 240.359 278.06 240.291 277.956 240.263C277.851 240.235 277.74 240.249 277.647 240.303C277.553 240.357 277.485 240.445 277.457 240.549L277.448 240.583Z" fill="white"/>
            <path d="M291.13 268.314C290.386 270.601 292.585 273.376 295.02 272.887C295.564 272.77 296.048 272.46 296.38 272.015C296.713 271.57 296.873 271.019 296.83 270.466C296.782 269.884 296.539 269.336 296.14 268.91C295.741 268.484 295.209 268.206 294.631 268.12C294.35 268.111 294.072 268.18 293.827 268.318C293.582 268.457 293.381 268.66 293.244 268.905C293.091 269.173 293.01 269.477 293.01 269.786C293.01 270.096 293.091 270.399 293.244 270.668C293.489 271.132 294.2 270.719 293.946 270.255C293.692 269.791 293.946 268.896 294.606 268.939C294.982 269.017 295.322 269.215 295.577 269.502C295.831 269.789 295.986 270.151 296.018 270.533C296.045 270.904 295.932 271.271 295.7 271.562C295.468 271.853 295.135 272.046 294.766 272.102C294.355 272.136 293.941 272.071 293.56 271.913C293.179 271.754 292.841 271.507 292.576 271.191C292.247 270.842 292.014 270.414 291.9 269.948C291.785 269.482 291.794 268.995 291.925 268.534C292.086 268.027 291.299 267.816 291.13 268.314Z" fill="white"/>
            <path d="M332.024 226.739C331.009 227.945 331.263 229.607 331.77 230.957C332.076 231.768 332.464 232.545 332.929 233.277C333.309 233.955 333.845 234.533 334.493 234.964C334.799 235.154 335.154 235.251 335.514 235.244C335.874 235.236 336.225 235.125 336.522 234.922C336.825 234.675 337.069 234.363 337.236 234.01C337.402 233.657 337.488 233.271 337.486 232.881C337.508 232.002 337.422 231.124 337.233 230.265C337.124 229.474 336.786 228.733 336.26 228.131C335.947 227.815 335.562 227.581 335.137 227.449C334.713 227.317 334.262 227.29 333.825 227.371C332.891 227.633 332.06 228.171 331.44 228.915C331.402 228.953 331.371 228.998 331.35 229.047C331.33 229.097 331.319 229.15 331.318 229.203C331.318 229.257 331.328 229.31 331.348 229.36C331.368 229.41 331.398 229.455 331.436 229.493C331.474 229.532 331.519 229.562 331.568 229.583C331.618 229.604 331.671 229.615 331.725 229.615C331.779 229.615 331.832 229.605 331.882 229.585C331.932 229.565 331.977 229.535 332.015 229.498C332.912 228.654 334.205 227.557 335.457 228.51C336.455 229.27 336.556 230.881 336.649 232.028C336.779 232.717 336.65 233.429 336.286 234.028C336.121 234.239 335.881 234.378 335.616 234.416C335.351 234.454 335.082 234.387 334.865 234.23C334.343 233.859 333.912 233.375 333.605 232.813C333.256 232.278 332.953 231.713 332.7 231.126C332.235 230.012 331.728 228.375 332.607 227.329C332.937 226.924 332.362 226.342 332.024 226.747V226.739Z" fill="white"/>
            <path d="M302.876 214.067C302.453 214.107 302.053 214.273 301.727 214.544C301.401 214.815 301.165 215.178 301.049 215.586C300.794 216.613 300.874 217.694 301.277 218.673C301.742 220.065 302.969 222.183 304.778 221.786C305.167 221.659 305.514 221.429 305.783 221.122C306.052 220.815 306.234 220.441 306.309 220.04C306.541 219.058 306.541 218.036 306.309 217.054C306.157 216.054 305.729 215.117 305.074 214.345C304.727 214.024 304.269 213.85 303.796 213.859C303.322 213.869 302.871 214.061 302.537 214.396C301.007 215.602 300.846 217.88 300.745 219.669C300.745 220.192 301.531 220.192 301.59 219.669C301.565 218.322 301.855 216.987 302.436 215.771C302.723 215.282 303.282 214.658 303.907 214.658C304.685 214.658 305.074 215.78 305.277 216.345C305.544 217.103 305.67 217.904 305.649 218.707C305.678 219.381 305.488 220.047 305.108 220.605C304.102 221.829 302.757 219.973 302.351 219.146C301.939 218.349 301.716 217.469 301.7 216.573C301.7 215.856 302.022 214.927 302.859 214.885C303.383 214.835 303.383 214.042 302.859 214.042L302.876 214.067Z" fill="white"/>
            <path d="M315.365 266.5C315.325 267.462 315.489 268.421 315.846 269.315C316.203 270.209 316.745 271.018 317.437 271.689C318.688 272.971 320.743 274.034 322.511 273.241C324.675 272.296 323.804 269.31 323.069 267.673C322.333 266.036 320.321 263.885 318.198 264.56C317.707 264.745 317.271 265.05 316.928 265.446C316.585 265.842 316.348 266.318 316.236 266.829C315.963 268.194 316.123 269.609 316.693 270.879C316.879 271.368 317.665 271.157 317.479 270.66C316.896 269.141 316.346 266.669 318.012 265.598C319.678 264.526 321.394 266.332 322.139 267.639C322.571 268.491 322.856 269.41 322.984 270.356C323.111 271.2 323.06 272.111 322.223 272.516C320.811 273.199 319.103 272.246 318.097 271.276C317.451 270.672 316.942 269.937 316.607 269.121C316.271 268.304 316.116 267.425 316.152 266.543C316.194 266.02 315.374 266.02 315.306 266.543L315.365 266.5Z" fill="white"/>
        </g>
        <g opacity="0.09" clip-path="url(#clip2_79_126)">
            <path d="M76.4422 599.534C71.9097 609.211 70.5229 620.044 70.8527 630.632C70.9967 636.094 71.5621 641.538 72.5439 646.914C73.2458 650.669 74.6072 655.157 78.2179 657.123C82.0993 659.232 86.7671 657.232 89.4392 654.136C92.2381 650.888 93.5911 646.543 94.4367 642.434C96.4745 632.828 96.1991 622.876 93.6334 613.396C92.1553 607.956 89.7341 602.817 86.4796 598.21C85.1097 596.328 83.3001 594.27 80.8224 593.992C78.3448 593.713 76.1885 595.535 74.5057 597.214C74.4398 597.294 74.4059 597.395 74.4106 597.498C74.4154 597.6 74.4585 597.698 74.5315 597.771C74.6046 597.844 74.7022 597.887 74.8054 597.891C74.9085 597.896 75.0098 597.862 75.0892 597.796C76.7804 596.109 78.8353 594.262 81.3805 594.928C83.706 595.527 85.3042 597.864 86.5557 599.745C89.1691 603.706 91.1889 608.026 92.551 612.569C95.1036 621.253 95.6643 630.4 94.1915 639.33C93.5488 643.43 92.6017 647.648 90.4793 651.268C88.4329 654.76 84.56 658.017 80.1967 656.971C75.8333 655.925 74.2774 651.065 73.4826 647.226C72.5263 642.244 71.9608 637.195 71.7913 632.125C71.3093 621.157 72.527 609.92 77.2117 599.914C77.4315 599.442 76.7297 599.07 76.5014 599.501L76.4422 599.534Z" fill="white"/>
            <path d="M53.8137 622.887C60.4901 629.758 68.5993 635.081 77.5668 638.478C81.8015 640.068 86.2141 641.139 90.7076 641.667C95.1555 642.173 100.009 642.266 104.339 641.118C108.474 640.03 112.127 636.9 111.949 632.302C111.772 627.704 108.262 624.017 104.812 621.453C96.686 615.404 86.3696 612.923 76.4337 612.071C70.5145 611.573 64.4345 611.43 58.6759 613.041C56.2575 613.725 53.6023 614.678 51.7842 616.5C50.9142 617.365 50.3144 618.463 50.0577 619.661C49.801 620.859 49.8985 622.106 50.3382 623.25C50.5243 623.739 51.3107 623.528 51.1247 623.03C49.0107 617.378 55.4373 614.687 59.7837 613.615C64.629 612.417 69.6942 612.442 74.641 612.771C84.0611 613.413 93.5488 615.421 101.7 620.364C105.447 622.651 109.48 625.848 110.765 630.227C111.1 631.29 111.193 632.413 111.038 633.517C110.883 634.62 110.484 635.675 109.869 636.605C108.469 638.508 106.416 639.832 104.102 640.325C99.9416 641.263 95.6485 641.466 91.4179 640.924C87.2744 640.502 83.1939 639.601 79.2581 638.242C69.8073 634.939 61.2576 629.486 54.2872 622.313C53.9236 621.934 53.3402 622.516 53.7122 622.887H53.8137Z" fill="white"/>
            <path d="M56.1053 643.093C63.09 633.5 70.2354 624.009 78.1334 615.142C81.7422 610.96 85.6325 607.028 89.7774 603.373C91.9497 601.489 94.281 599.795 96.7452 598.311C98.8085 597.088 101.151 595.78 103.645 596.025C106.453 596.303 108.093 598.767 108.271 601.399C108.297 603.885 107.716 606.34 106.58 608.553C104.39 613.446 101.109 617.833 97.9376 622.128C91.7984 630.438 84.9067 638.385 76.5352 644.535C74.2431 646.23 71.8389 647.769 69.3391 649.142C66.8783 650.491 64.2654 651.926 61.365 652.094C59.9289 652.199 58.4951 651.863 57.2553 651.133C56.4964 650.737 55.8833 650.111 55.5049 649.344C55.0737 648.306 55.5556 647.328 56.0038 646.391C57.4194 643.503 59.092 640.747 61.0014 638.157C61.3142 637.727 60.6039 637.313 60.2911 637.744C58.3814 640.332 56.7115 643.088 55.302 645.978C54.6499 646.974 54.4048 648.182 54.617 649.353C54.9983 650.377 55.7327 651.232 56.6888 651.765C61.272 654.701 66.8361 651.554 70.9542 649.192C80.6618 643.573 88.6274 635.432 95.4768 626.675C99.1045 622.22 102.416 617.518 105.387 612.603C107.671 608.654 110.596 602.977 108.288 598.421C107.797 597.446 107.043 596.628 106.11 596.058C105.178 595.489 104.104 595.191 103.011 595.198C100.474 595.198 98.1067 596.523 95.9842 597.805C90.9106 600.851 86.6233 604.9 82.5644 609.11C72.5693 619.512 63.8341 631.045 55.3611 642.688C55.0567 643.118 55.767 643.531 56.0715 643.101L56.1053 643.093Z" fill="white"/>
            <path d="M80.7971 623.663C80.3469 624.147 80.0658 624.764 79.9957 625.421C79.9256 626.078 80.0703 626.74 80.4081 627.308C80.7218 627.898 81.2002 628.385 81.7854 628.71C82.3707 629.035 83.0377 629.184 83.706 629.138C86.9277 628.784 86.4711 623.452 83.4184 623.233C82.6131 623.175 81.8063 623.326 81.0771 623.672C80.3479 624.018 79.7211 624.547 79.258 625.207C78.9621 625.637 79.6724 626.051 79.9684 625.62C80.2775 625.171 80.6798 624.793 81.1481 624.512C81.6164 624.231 82.1398 624.054 82.6827 623.992C82.9792 623.924 83.2877 623.929 83.5821 624.005C83.8765 624.082 84.1481 624.228 84.374 624.431C84.7809 624.853 85.0417 625.394 85.1181 625.975C85.2236 626.428 85.1642 626.905 84.9505 627.319C84.7368 627.733 84.3826 628.058 83.9512 628.236C83.4772 628.328 82.9867 628.283 82.5373 628.107C82.088 627.93 81.6984 627.63 81.4143 627.24C80.7886 626.397 80.5687 624.971 81.4143 624.211C81.8118 623.857 81.2283 623.283 80.8393 623.629L80.7971 623.663Z" fill="white"/>
            <path d="M50.4482 622.583C50.3407 623.212 50.4066 623.858 50.639 624.453C50.8713 625.047 51.2614 625.568 51.7673 625.958C52.2646 626.382 52.8973 626.615 53.5516 626.616C53.8715 626.603 54.1857 626.527 54.476 626.393C54.7664 626.258 55.027 626.067 55.2428 625.831C55.6725 625.324 55.9083 624.681 55.9083 624.017C55.9083 623.353 55.6725 622.711 55.2428 622.204C54.4733 621.191 53.0611 620.398 51.7927 620.963C50.389 621.588 50.1015 623.376 50.668 624.659C50.7244 624.752 50.815 624.82 50.9206 624.848C51.0263 624.877 51.1388 624.863 51.2346 624.81C51.3253 624.751 51.3905 624.661 51.4171 624.556C51.4437 624.451 51.4299 624.34 51.3783 624.245C51.1861 623.838 51.1358 623.379 51.2354 622.94C51.335 622.501 51.5788 622.108 51.928 621.824C52.7736 621.267 53.7714 621.824 54.3718 622.431C54.74 622.756 54.9848 623.198 55.0649 623.682C55.145 624.166 55.0555 624.663 54.8115 625.089C54.6875 625.267 54.5293 625.418 54.3461 625.534C54.1629 625.651 53.9585 625.73 53.7445 625.766C53.5306 625.803 53.3114 625.798 53.0997 625.749C52.8881 625.701 52.6881 625.611 52.5115 625.485C52.0579 625.203 51.6965 624.795 51.4713 624.311C51.2461 623.827 51.1668 623.288 51.243 622.76C51.2711 622.656 51.2565 622.545 51.2026 622.452C51.1487 622.359 51.0598 622.291 50.9555 622.263C50.8513 622.235 50.7401 622.249 50.6465 622.303C50.553 622.357 50.4847 622.445 50.4566 622.549L50.4482 622.583Z" fill="white"/>
            <path d="M64.1301 650.314C63.386 652.601 65.5845 655.376 68.0199 654.887C68.5641 654.77 69.0475 654.46 69.3803 654.015C69.713 653.57 69.8727 653.019 69.8295 652.466C69.7824 651.884 69.5394 651.336 69.1402 650.91C68.741 650.484 68.209 650.206 67.6309 650.12C67.3498 650.111 67.0717 650.18 66.827 650.318C66.5824 650.457 66.3807 650.66 66.2441 650.905C66.0906 651.173 66.0099 651.477 66.0099 651.786C66.0099 652.096 66.0906 652.399 66.2441 652.668C66.4893 653.132 67.1997 652.719 66.946 652.255C66.6923 651.791 66.946 650.896 67.6056 650.939C67.9817 651.017 68.3223 651.215 68.5767 651.502C68.8312 651.789 68.9858 652.151 69.0177 652.533C69.0455 652.904 68.932 653.271 68.7 653.562C68.468 653.853 68.1345 654.046 67.7662 654.102C67.3547 654.136 66.941 654.071 66.5599 653.913C66.1788 653.754 65.8414 653.507 65.5761 653.191C65.2468 652.842 65.0137 652.414 64.8996 651.948C64.7855 651.482 64.7942 650.995 64.925 650.534C65.0856 650.027 64.2992 649.816 64.1301 650.314Z" fill="white"/>
            <path d="M105.024 608.739C104.009 609.945 104.263 611.607 104.77 612.957C105.076 613.768 105.464 614.545 105.929 615.277C106.309 615.955 106.845 616.533 107.493 616.964C107.799 617.154 108.154 617.251 108.514 617.244C108.874 617.236 109.225 617.125 109.522 616.922C109.825 616.675 110.069 616.363 110.236 616.01C110.402 615.657 110.488 615.271 110.486 614.881C110.508 614.002 110.422 613.124 110.233 612.265C110.124 611.474 109.786 610.733 109.26 610.131C108.947 609.815 108.562 609.581 108.137 609.449C107.713 609.317 107.262 609.29 106.825 609.371C105.891 609.633 105.06 610.171 104.44 610.915C104.402 610.953 104.371 610.998 104.35 611.047C104.33 611.097 104.319 611.15 104.318 611.203C104.318 611.257 104.328 611.31 104.348 611.36C104.368 611.41 104.398 611.455 104.436 611.493C104.474 611.531 104.519 611.562 104.568 611.583C104.618 611.604 104.671 611.615 104.725 611.615C104.779 611.615 104.832 611.605 104.882 611.585C104.932 611.565 104.977 611.535 105.015 611.497C105.912 610.654 107.205 609.557 108.457 610.51C109.455 611.27 109.556 612.881 109.649 614.028C109.779 614.717 109.65 615.429 109.286 616.028C109.121 616.239 108.881 616.378 108.616 616.416C108.351 616.454 108.082 616.387 107.865 616.23C107.343 615.859 106.912 615.375 106.605 614.813C106.256 614.278 105.953 613.713 105.7 613.126C105.235 612.012 104.728 610.375 105.607 609.329C105.937 608.924 105.362 608.342 105.024 608.747V608.739Z" fill="white"/>
            <path d="M75.8756 596.067C75.4533 596.107 75.0529 596.273 74.727 596.544C74.401 596.815 74.1648 597.178 74.0491 597.586C73.7943 598.613 73.8742 599.694 74.2774 600.673C74.7425 602.065 75.9686 604.183 77.7782 603.786C78.1668 603.659 78.5138 603.429 78.783 603.122C79.0523 602.815 79.2339 602.441 79.3088 602.04C79.5413 601.058 79.5413 600.036 79.3088 599.054C79.1565 598.054 78.7291 597.117 78.0742 596.345C77.7272 596.024 77.2688 595.85 76.7955 595.859C76.3223 595.869 75.8712 596.061 75.5374 596.396C74.0068 597.602 73.8462 599.88 73.7447 601.669C73.7447 602.192 74.5311 602.192 74.5903 601.669C74.5652 600.322 74.8547 598.987 75.4359 597.771C75.7234 597.282 76.2815 596.658 76.9073 596.658C77.6852 596.658 78.0742 597.78 78.2771 598.345C78.5436 599.103 78.6697 599.904 78.6492 600.707C78.6781 601.381 78.4883 602.047 78.108 602.605C77.1018 603.829 75.7572 601.973 75.3513 601.146C74.9392 600.349 74.7164 599.469 74.7002 598.573C74.7002 597.856 75.0216 596.928 75.8587 596.885C76.383 596.835 76.383 596.042 75.8587 596.042L75.8756 596.067Z" fill="white"/>
            <path d="M88.3652 648.5C88.3254 649.462 88.4893 650.421 88.8463 651.315C89.2033 652.209 89.7453 653.018 90.437 653.689C91.6885 654.971 93.7433 656.034 95.5106 655.241C97.6754 654.296 96.8044 651.31 96.0687 649.673C95.3331 648.036 93.3205 645.885 91.198 646.56C90.7073 646.745 90.2707 647.05 89.9281 647.446C89.5854 647.842 89.3476 648.318 89.2362 648.829C88.9632 650.194 89.1228 651.609 89.6928 652.879C89.8789 653.368 90.6653 653.157 90.4793 652.66C89.8958 651.141 89.3461 648.669 91.012 647.598C92.6778 646.526 94.3945 648.332 95.1386 649.639C95.5706 650.491 95.8564 651.41 95.9842 652.356C96.111 653.2 96.0603 654.111 95.2231 654.516C93.811 655.199 92.1028 654.246 91.0966 653.275C90.4505 652.672 89.9424 651.937 89.6068 651.121C89.2711 650.304 89.1159 649.425 89.1517 648.543C89.1939 648.019 88.3737 648.019 88.3061 648.543L88.3652 648.5Z" fill="white"/>
        </g>
        <g opacity="0.09" clip-path="url(#clip3_79_126)">
            <path d="M60.761 166.653L85.4995 159.256C85.7146 159.168 85.89 159.005 85.9929 158.796C86.0958 158.588 86.1188 158.349 86.0578 158.125C85.9969 157.901 85.856 157.707 85.6618 157.58C85.4676 157.452 85.2335 157.4 85.0036 157.433L60.2651 164.817C59.0992 165.166 59.5951 167.002 60.761 166.653Z" fill="white"/>
            <path d="M85.7274 159.47L144.491 179.411C145.523 179.76 146.113 178.219 145.215 177.683L98.3111 149.031C97.2658 148.401 96.3143 150.036 97.3596 150.679L144.264 179.317L144.987 177.589L86.2367 157.648C85.0708 157.246 84.5749 159.082 85.7274 159.47Z" fill="white"/>
            <path d="M59.5952 169.28C86.4601 174.855 113.419 180.019 140.471 184.772C148.172 186.121 155.887 187.461 163.615 188.792C164.808 188.993 165.317 187.171 164.111 186.969C137.04 182.44 110.042 177.526 83.1142 172.228C75.4309 170.718 67.7565 169.164 60.0911 167.565C58.8984 167.323 58.3891 169.146 59.5952 169.387L59.5952 169.28Z" fill="white"/>
            <path d="M97.6679 149.969C107.227 149.361 116.751 148.437 126.239 147.195C127.432 147.034 127.459 145.145 126.239 145.305C116.751 146.547 107.227 147.472 97.6679 148.079C96.4484 148.146 96.4484 150.049 97.6679 149.969Z" fill="white"/>
            <path d="M166.644 186.768C153.119 171.488 138.739 156.987 123.572 143.335C122.661 142.518 121.321 143.845 122.232 144.675C137.399 158.327 151.779 172.828 165.303 188.109C166.107 189.02 167.448 187.68 166.644 186.768Z" fill="white"/>
            <path d="M84.1996 156.75C84.2133 147.954 83.7031 139.165 82.6719 130.43C82.5378 129.237 80.6349 129.224 80.7823 130.43C81.8002 139.166 82.3104 147.954 82.3101 156.75C82.3377 156.981 82.449 157.194 82.6231 157.349C82.7972 157.503 83.022 157.589 83.2548 157.589C83.4876 157.589 83.7124 157.503 83.8865 157.349C84.0606 157.194 84.172 156.981 84.1996 156.75Z" fill="white"/>
            <path d="M97.3866 149.379L83.4897 129.465C82.7928 128.46 81.1444 129.465 81.8547 130.417L95.7517 150.331C96.4351 151.322 98.0835 150.331 97.3866 149.379Z" fill="white"/>
            <path d="M82.5646 130.644C90.8823 137.113 99.4768 143.219 108.348 148.964C109.38 149.634 110.332 147.986 109.3 147.329C100.589 141.692 92.1241 135.683 83.9047 129.304C82.9398 128.567 81.5997 129.894 82.5646 130.644Z" fill="white"/>
            <path d="M337.883 28.0051C340.389 49.5944 330.486 71.3579 315.222 86.8228C299.958 102.288 279.843 112.124 259.259 119.066C251.808 121.572 244.156 123.783 237.388 127.763C224.818 135.174 216.389 148.106 211.042 161.682C207.021 171.92 206.123 186.541 216.174 191.017C223.196 194.126 231.854 189.476 235.244 182.587C238.634 175.699 237.924 167.457 235.78 160.073C229.884 139.369 214.338 122.389 195.979 111.065C177.619 99.7415 156.686 93.5367 135.673 88.6989C121.522 85.4558 107.022 82.7622 92.562 84.0353C78.1022 85.3084 63.5217 90.9637 54.1007 102.006C52.2647 104.164 50.5629 106.857 51.0721 109.645C51.4875 111.883 53.2431 113.665 54.9182 115.166L73.1437 132.186" stroke="white" stroke-width="2.01017" stroke-miterlimit="10" stroke-linecap="round" stroke-dasharray="13.05 13.05"/>
            <path d="M126.172 172.483L121.911 164.442C121.348 163.357 119.713 164.322 120.276 165.394C121.696 168.074 123.117 170.754 124.524 173.501C125.1 174.587 126.735 173.622 126.172 172.55L126.172 172.483Z" fill="white"/>
            <path d="M118.989 171.84L113.159 158.519C113.099 158.404 113.014 158.302 112.912 158.222C112.81 158.141 112.692 158.082 112.566 158.049C112.44 158.017 112.309 158.01 112.18 158.031C112.051 158.052 111.929 158.1 111.819 158.17C111.708 158.235 111.611 158.322 111.534 158.424C111.456 158.527 111.4 158.644 111.367 158.768C111.335 158.893 111.327 159.022 111.345 159.15C111.363 159.277 111.406 159.4 111.471 159.511L117.3 172.845C117.365 172.956 117.452 173.053 117.555 173.13C117.658 173.208 117.775 173.263 117.9 173.295C118.025 173.326 118.155 173.332 118.282 173.312C118.409 173.292 118.531 173.247 118.641 173.18C118.862 173.046 119.022 172.83 119.085 172.579C119.148 172.328 119.108 172.062 118.976 171.84L118.989 171.84Z" fill="white"/>
            <path d="M107.893 165.367C106.106 161.364 104.275 157.344 102.398 153.306C102.334 153.195 102.247 153.098 102.144 153.02C102.041 152.943 101.924 152.887 101.799 152.856C101.674 152.825 101.544 152.819 101.417 152.838C101.29 152.858 101.168 152.903 101.058 152.971C100.837 153.104 100.677 153.32 100.614 153.572C100.551 153.823 100.59 154.089 100.723 154.311C102.555 158.322 104.386 162.343 106.218 166.372C106.354 166.571 106.561 166.71 106.796 166.762C107.032 166.814 107.278 166.775 107.485 166.652C107.693 166.53 107.846 166.333 107.914 166.102C107.983 165.871 107.961 165.623 107.853 165.407L107.893 165.367Z" fill="white"/>
            <path d="M99.1957 162.003C97.1945 155.982 95.0548 150.018 92.7766 144.113C92.3344 142.987 90.4984 143.469 90.9407 144.622C93.2367 150.527 95.3809 156.491 97.3732 162.512C97.7484 163.665 99.5844 163.169 99.1957 162.003Z" fill="white"/>
            <path d="M92.2134 157.098C90.3729 151.452 88.5325 145.819 86.6921 140.199C86.3035 139.047 84.4809 139.543 84.8561 140.709C86.7055 146.337 88.5504 151.966 90.3908 157.594C90.766 158.747 92.602 158.251 92.2134 157.098Z" fill="white"/>
            <path d="M85.6605 156.468C84.801 153.588 84.2572 150.622 84.0389 147.624C84.0322 147.374 83.9297 147.135 83.7528 146.958C83.5758 146.781 83.3376 146.679 83.0874 146.672C82.8374 146.676 82.5989 146.778 82.4234 146.956C82.2478 147.134 82.1494 147.374 82.1494 147.624C82.3662 150.803 82.9324 153.949 83.8379 157.005C83.9257 157.22 84.0892 157.395 84.2975 157.498C84.5058 157.601 84.7444 157.624 84.9685 157.563C85.1927 157.502 85.3868 157.361 85.5143 157.167C85.6417 156.973 85.6937 156.739 85.6605 156.509L85.6605 156.468Z" fill="white"/>
        </g>
        <g opacity="0.09" clip-path="url(#clip4_79_126)">
            <path d="M328.516 669.347L303.778 676.744C303.563 676.832 303.387 676.995 303.284 677.204C303.181 677.412 303.158 677.651 303.219 677.875C303.28 678.099 303.421 678.293 303.615 678.42C303.81 678.548 304.044 678.6 304.274 678.567L329.012 671.183C330.178 670.834 329.682 668.998 328.516 669.347Z" fill="white"/>
            <path d="M303.55 676.53L244.786 656.589C243.754 656.24 243.164 657.781 244.062 658.318L290.966 686.969C292.011 687.599 292.963 685.964 291.918 685.321L245.014 656.683L244.29 658.411L303.04 678.352C304.206 678.754 304.702 676.918 303.55 676.53Z" fill="white"/>
            <path d="M329.682 666.72C302.817 661.145 275.858 655.981 248.806 651.228C241.105 649.879 233.39 648.539 225.662 647.208C224.47 647.007 223.96 648.83 225.166 649.031C252.237 653.56 279.236 658.474 306.163 663.772C313.846 665.282 321.521 666.836 329.186 668.435C330.379 668.677 330.888 666.854 329.682 666.613V666.72Z" fill="white"/>
            <path d="M291.609 686.031C282.05 686.639 272.526 687.563 263.038 688.805C261.845 688.966 261.818 690.855 263.038 690.695C272.526 689.453 282.05 688.528 291.609 687.921C292.829 687.854 292.829 685.951 291.609 686.031Z" fill="white"/>
            <path d="M222.634 649.232C236.158 664.512 250.538 679.013 265.705 692.665C266.616 693.482 267.956 692.155 267.045 691.325C251.879 677.672 237.498 663.172 223.974 647.891C223.17 646.98 221.83 648.32 222.634 649.232Z" fill="white"/>
            <path d="M305.078 679.25C305.064 688.046 305.574 696.835 306.605 705.57C306.739 706.763 308.642 706.776 308.495 705.57C307.477 696.834 306.967 688.046 306.967 679.25C306.939 679.019 306.828 678.806 306.654 678.651C306.48 678.497 306.255 678.411 306.022 678.411C305.79 678.411 305.565 678.497 305.391 678.651C305.217 678.806 305.105 679.019 305.078 679.25Z" fill="white"/>
            <path d="M291.891 686.621L305.787 706.535C306.484 707.54 308.133 706.535 307.422 705.583L293.525 685.669C292.842 684.678 291.194 685.669 291.891 686.621Z" fill="white"/>
            <path d="M306.713 705.355C298.395 698.887 289.8 692.781 280.929 687.036C279.897 686.366 278.945 688.014 279.977 688.671C288.688 694.308 297.153 700.317 305.372 706.696C306.337 707.433 307.677 706.106 306.713 705.355Z" fill="white"/>
            <path d="M51.3938 807.995C48.8878 786.406 58.7912 764.642 74.0551 749.177C89.319 733.712 109.434 723.876 130.018 716.934C137.469 714.428 145.121 712.217 151.889 708.237C164.459 700.826 172.889 687.894 178.236 674.318C182.256 664.08 183.154 649.459 173.103 644.983C166.081 641.874 157.424 646.524 154.033 653.413C150.643 660.301 151.353 668.543 153.497 675.927C159.394 696.631 174.939 713.611 193.298 724.935C211.658 736.259 232.591 742.463 253.604 747.301C267.755 750.544 282.255 753.238 296.715 751.965C311.175 750.692 325.755 745.036 335.176 733.994C337.012 731.836 338.714 729.143 338.205 726.355C337.79 724.117 336.034 722.335 334.359 720.834L316.133 703.814" stroke="white" stroke-width="2.01017" stroke-miterlimit="10" stroke-linecap="round" stroke-dasharray="13.05 13.05"/>
            <path d="M263.105 663.517L267.367 671.558C267.929 672.643 269.564 671.678 269.002 670.606C267.581 667.926 266.161 665.246 264.753 662.499C264.177 661.413 262.542 662.378 263.105 663.45V663.517Z" fill="white"/>
            <path d="M270.288 664.16L276.118 677.481C276.179 677.596 276.263 677.698 276.365 677.778C276.467 677.859 276.585 677.918 276.711 677.951C276.837 677.983 276.969 677.99 277.097 677.969C277.226 677.948 277.349 677.901 277.458 677.83C277.569 677.765 277.666 677.678 277.743 677.576C277.821 677.473 277.878 677.356 277.91 677.232C277.942 677.107 277.95 676.978 277.932 676.85C277.914 676.723 277.872 676.6 277.806 676.489L271.977 663.155C271.912 663.044 271.825 662.947 271.723 662.87C271.62 662.792 271.502 662.737 271.377 662.705C271.252 662.674 271.123 662.668 270.995 662.688C270.868 662.708 270.746 662.753 270.637 662.82C270.415 662.954 270.255 663.17 270.192 663.421C270.129 663.672 270.169 663.938 270.302 664.16H270.288Z" fill="white"/>
            <path d="M281.384 670.633C283.171 674.636 285.003 678.656 286.879 682.694C286.944 682.805 287.03 682.902 287.133 682.98C287.236 683.057 287.353 683.113 287.478 683.144C287.603 683.175 287.733 683.181 287.86 683.162C287.987 683.142 288.109 683.097 288.219 683.029C288.441 682.896 288.6 682.68 288.663 682.428C288.726 682.177 288.687 681.911 288.554 681.689C286.722 677.678 284.891 673.657 283.059 669.628C282.923 669.429 282.716 669.29 282.481 669.238C282.245 669.186 281.999 669.225 281.792 669.348C281.584 669.47 281.431 669.667 281.363 669.898C281.294 670.129 281.317 670.377 281.424 670.593L281.384 670.633Z" fill="white"/>
            <path d="M290.081 673.997C292.083 680.018 294.222 685.982 296.501 691.887C296.943 693.013 298.779 692.531 298.336 691.378C296.04 685.473 293.896 679.509 291.904 673.488C291.529 672.335 289.693 672.831 290.081 673.997Z" fill="white"/>
            <path d="M297.064 678.902C298.904 684.548 300.745 690.181 302.585 695.801C302.974 696.953 304.796 696.457 304.421 695.291C302.572 689.663 300.727 684.034 298.886 678.406C298.511 677.253 296.675 677.749 297.064 678.902Z" fill="white"/>
            <path d="M303.617 679.532C304.476 682.412 305.02 685.378 305.238 688.376C305.245 688.627 305.347 688.865 305.524 689.042C305.701 689.219 305.939 689.321 306.19 689.328C306.44 689.324 306.678 689.222 306.854 689.044C307.029 688.866 307.128 688.626 307.128 688.376C306.911 685.197 306.345 682.051 305.439 678.995C305.351 678.78 305.188 678.605 304.98 678.502C304.771 678.399 304.533 678.376 304.309 678.437C304.084 678.498 303.89 678.639 303.763 678.833C303.635 679.027 303.583 679.261 303.617 679.491V679.532Z" fill="white"/>
        </g>
        <g clip-path="url(#clip5_79_126)">
            <path d="M129 421.781V511.055C129 514.891 132.307 518.001 136.385 518.001H254.614C258.692 518.001 261.999 514.891 261.999 511.055V421.781H129Z" fill="#FD3667"/>
            <path d="M168.051 500.037L166.61 498.1C166.183 498.185 165.767 498.228 165.361 498.228C164.305 498.228 163.333 497.983 162.448 497.492C161.572 497.001 160.873 496.318 160.35 495.443C159.838 494.557 159.582 493.564 159.582 492.465C159.582 491.366 159.838 490.379 160.35 489.503C160.873 488.628 161.572 487.945 162.448 487.454C163.333 486.963 164.305 486.718 165.361 486.718C166.418 486.718 167.384 486.963 168.259 487.454C169.144 487.945 169.838 488.628 170.34 489.503C170.852 490.379 171.108 491.366 171.108 492.465C171.108 493.426 170.911 494.306 170.516 495.106C170.132 495.896 169.593 496.553 168.899 497.075L171.364 500.037H168.051ZM162.384 492.465C162.384 493.458 162.65 494.253 163.184 494.85C163.728 495.437 164.454 495.731 165.361 495.731C166.258 495.731 166.973 495.432 167.506 494.834C168.051 494.237 168.323 493.447 168.323 492.465C168.323 491.472 168.051 490.683 167.506 490.096C166.973 489.498 166.258 489.199 165.361 489.199C164.454 489.199 163.728 489.493 163.184 490.08C162.65 490.667 162.384 491.462 162.384 492.465ZM178.393 498.116L176.056 493.874H175.4V498.116H172.662V486.878H177.257C178.143 486.878 178.895 487.033 179.514 487.342C180.144 487.652 180.613 488.079 180.923 488.623C181.232 489.157 181.387 489.754 181.387 490.416C181.387 491.163 181.173 491.83 180.747 492.417C180.33 493.004 179.711 493.42 178.89 493.666L181.483 498.116H178.393ZM175.4 491.937H177.097C177.598 491.937 177.972 491.814 178.217 491.569C178.473 491.323 178.601 490.976 178.601 490.528C178.601 490.101 178.473 489.765 178.217 489.519C177.972 489.274 177.598 489.151 177.097 489.151H175.4V491.937ZM193.301 492.353C193.952 492.492 194.475 492.817 194.87 493.329C195.265 493.831 195.462 494.407 195.462 495.058C195.462 495.998 195.132 496.745 194.47 497.3C193.819 497.844 192.906 498.116 191.733 498.116H186.498V486.878H191.556C192.698 486.878 193.589 487.14 194.23 487.662C194.881 488.185 195.206 488.895 195.206 489.792C195.206 490.453 195.03 491.003 194.678 491.44C194.337 491.878 193.878 492.182 193.301 492.353ZM189.235 491.424H191.028C191.476 491.424 191.818 491.328 192.053 491.136C192.298 490.934 192.421 490.64 192.421 490.256C192.421 489.872 192.298 489.578 192.053 489.375C191.818 489.173 191.476 489.071 191.028 489.071H189.235V491.424ZM191.252 495.907C191.711 495.907 192.063 495.805 192.309 495.603C192.565 495.389 192.693 495.085 192.693 494.69C192.693 494.295 192.56 493.986 192.293 493.762C192.037 493.538 191.679 493.426 191.22 493.426H189.235V495.907H191.252ZM202.365 498.228C201.308 498.228 200.337 497.983 199.451 497.492C198.576 497.001 197.877 496.318 197.354 495.443C196.842 494.557 196.586 493.564 196.586 492.465C196.586 491.366 196.842 490.379 197.354 489.503C197.877 488.628 198.576 487.945 199.451 487.454C200.337 486.963 201.308 486.718 202.365 486.718C203.422 486.718 204.387 486.963 205.263 487.454C206.148 487.945 206.842 488.628 207.344 489.503C207.856 490.379 208.112 491.366 208.112 492.465C208.112 493.564 207.856 494.557 207.344 495.443C206.831 496.318 206.138 497.001 205.263 497.492C204.387 497.983 203.422 498.228 202.365 498.228ZM202.365 495.731C203.261 495.731 203.977 495.432 204.51 494.834C205.054 494.237 205.327 493.447 205.327 492.465C205.327 491.472 205.054 490.683 204.51 490.096C203.977 489.498 203.261 489.199 202.365 489.199C201.458 489.199 200.732 489.493 200.188 490.08C199.654 490.667 199.387 491.462 199.387 492.465C199.387 493.458 199.654 494.253 200.188 494.85C200.732 495.437 201.458 495.731 202.365 495.731ZM214.95 498.228C213.893 498.228 212.922 497.983 212.036 497.492C211.161 497.001 210.462 496.318 209.939 495.443C209.427 494.557 209.171 493.564 209.171 492.465C209.171 491.366 209.427 490.379 209.939 489.503C210.462 488.628 211.161 487.945 212.036 487.454C212.922 486.963 213.893 486.718 214.95 486.718C216.006 486.718 216.972 486.963 217.847 487.454C218.733 487.945 219.427 488.628 219.928 489.503C220.441 490.379 220.697 491.366 220.697 492.465C220.697 493.564 220.441 494.557 219.928 495.443C219.416 496.318 218.722 497.001 217.847 497.492C216.972 497.983 216.006 498.228 214.95 498.228ZM214.95 495.731C215.846 495.731 216.561 495.432 217.095 494.834C217.639 494.237 217.911 493.447 217.911 492.465C217.911 491.472 217.639 490.683 217.095 490.096C216.561 489.498 215.846 489.199 214.95 489.199C214.043 489.199 213.317 489.493 212.773 490.08C212.239 490.667 211.972 491.462 211.972 492.465C211.972 493.458 212.239 494.253 212.773 494.85C213.317 495.437 214.043 495.731 214.95 495.731ZM228.735 498.116L224.957 493.153V498.116H222.22V486.878H224.957V491.809L228.703 486.878H231.921L227.567 492.385L232.081 498.116H228.735Z" fill="white"/>
            <path d="M252.707 326H138.293C133.161 326 129 330.125 129 335.212V440.066C129 445.153 133.161 449.278 138.293 449.278H170.775L195.5 477.807L220.225 449.277H252.707C257.839 449.277 262 445.152 262 440.065V335.212C262 330.125 257.839 326 252.707 326Z" fill="white"/>
            <path d="M175.977 340.134H172.427V343.653V347.172H175.977V343.653H179.527V340.134H175.977Z" fill="#1A1A1A"/>
            <path d="M239.869 340.134H236.319H232.769H229.219H225.669H222.122V343.653V347.172V350.691V354.211V357.73V361.249H225.672H229.221H232.771H236.321H239.871H243.421V357.73V354.211V350.691V347.172V343.653V340.134H239.869ZM239.869 347.172V350.691V354.211V357.73H236.319H232.769H229.219H225.669V354.211V350.691V347.172V343.653H229.219H232.769H236.319H239.869V347.172Z" fill="#1A1A1A"/>
            <path d="M207.923 343.653V340.134H204.373V343.653V347.172H207.923V343.653Z" fill="#1A1A1A"/>
            <path d="M218.572 347.172V343.653V340.134H215.022V343.653H211.473V347.172H215.022H218.572Z" fill="#1A1A1A"/>
            <path d="M204.373 350.69V347.172H200.824V343.653V340.134H197.274H193.724V343.653H197.274V347.172V350.69H200.824H204.373Z" fill="#1A1A1A"/>
            <path d="M229.22 347.172V350.69V354.21H232.77H236.319V350.69V347.172H232.77H229.22Z" fill="#1A1A1A"/>
            <path d="M161.78 354.21V350.69V347.172H158.23H154.68V350.69V354.21H158.23H161.78Z" fill="#1A1A1A"/>
            <path d="M179.527 354.21V350.69H175.977H172.427V354.21H175.977V357.729H179.527V354.21Z" fill="#1A1A1A"/>
            <path d="M190.176 354.21H193.724H197.274V350.69H193.724V347.172H190.176V350.69H186.626V347.172H190.176V343.653V340.134H186.626V343.653H183.076H179.527V347.172H183.076V350.69V354.21H186.626V357.729H190.176V354.21Z" fill="#1A1A1A"/>
            <path d="M154.68 361.247H158.23H161.78H165.33H168.879V357.728V354.208V350.689V347.17V343.651V340.132H165.33H161.78H158.23H154.68H151.13H147.58V343.651V347.17V350.689V354.208V357.728V361.247H151.13H154.68ZM151.131 354.21V350.69V347.171V343.652H154.681H158.231H161.781H165.331V347.171V350.69V354.21V357.729H161.781H158.231H154.681H151.131V354.21Z" fill="#1A1A1A"/>
            <path d="M175.977 357.729H172.427V361.248H175.977V357.729Z" fill="#1A1A1A"/>
            <path d="M218.572 357.729H215.022V361.248H218.572V357.729Z" fill="#1A1A1A"/>
            <path d="M243.419 364.766H239.869V368.285H243.419V364.766Z" fill="#1A1A1A"/>
            <path d="M232.77 368.285V364.766H229.22V368.285V371.805H225.67V368.285V364.766H222.122H218.572V368.285H222.122V371.805V375.324H225.672V378.843H222.122H218.572V375.324V371.805V368.285H215.022V364.766V361.247H211.472V357.728H207.922V354.209H211.472V357.728H215.022V354.209H218.572V350.689H215.022H211.472V347.17H207.922V350.689H204.372V354.209H200.822V357.728H204.372V361.247H207.922V364.766H204.372V361.247H200.822V364.766H197.272V361.247H200.822V357.728H197.272H193.722H190.172V361.247H193.722V364.766H190.172V361.247H186.623V364.766H183.076V361.247H186.626V357.728H183.076H179.526V361.247H175.976V364.766V368.285H172.426V364.766H168.878H165.328V368.285H168.878V371.805H165.328V368.285H161.779V364.766H158.229H154.679V368.285H158.229V371.805V375.324H154.679V378.843H158.229V382.362H161.779V385.882H158.229V389.401V392.92H161.779V396.439H158.229V392.92H154.679V396.439H151.129V399.958H154.679H158.229V403.478H161.779V399.954H165.328V403.473H161.779V406.993V410.512H165.328H168.878V406.993H172.428H175.978V403.473V399.954H172.428V403.473H168.878V399.954H172.428V396.435V392.916H175.978H179.528V396.435H183.078H186.628V399.954H190.178V403.473H193.728H197.278V406.993H200.828H204.377V403.473H200.828V399.954H204.377V403.473H207.927V406.993H204.377V410.512H207.927H211.477H215.027V406.993H218.577V410.512V414.031V417.55H222.127V414.031H225.677V417.55H222.122V421.07H218.572V424.589H222.122H225.672H229.221H232.771V421.07V417.55H229.221V414.031H232.771V417.55H236.321V414.031H239.871V410.512H243.421V406.993H239.871V403.473H236.319V399.954V396.435H232.769H229.219V399.954H232.769V403.473H229.219V399.954H225.669V403.473V406.993H229.219H232.769H236.319V410.512H232.769H229.219H225.669V406.993H222.122V403.473H218.572V399.954H222.122H225.672V396.435H229.221V392.916V389.397V385.879V382.36H232.771V378.841H236.321V382.36H232.771V385.879V389.399V392.918H236.321V389.399V385.879H239.871H243.421V382.36V378.841H239.871V375.322H243.421V371.803H239.871V368.283H236.319H232.77V368.285ZM215.022 375.323H211.472V378.842V382.361H207.922V385.881H204.372V389.4H200.822V385.879H197.272V382.36H200.822V385.879H204.372V382.36V378.841H207.922V375.322V371.803H211.472H215.022V375.323ZM183.076 385.879H186.626V389.399H183.076V385.879ZM175.977 371.804V375.323H179.527V371.804H183.077V375.323H186.627H190.177H193.727V371.804H190.177V368.284H193.727V371.804H197.277H200.826V368.284H204.376V371.804V375.323H200.826H197.277H193.727V378.842V382.361H190.177V378.842H186.627V382.361H183.076V378.842V375.323H179.526V378.842V382.361H175.976V378.842V375.323H172.426V371.804H175.977ZM161.78 375.323H165.33V378.842H161.78V375.323ZM168.878 389.398V392.917H165.328V389.398V385.879V382.36H168.878V385.879H172.428V389.399H168.878V389.398ZM175.977 389.398V385.879H179.527V389.399H175.977V389.398ZM197.274 396.436V392.917H193.724V396.436H190.175V392.917H193.724V389.398H197.274V392.917H200.824V396.436H197.274ZM215.022 403.473H211.472V399.954H207.922V396.435H211.472V392.916V389.397H215.022V392.916V396.435V399.954V403.473ZM225.67 385.879V389.399V392.918H222.122V389.399H218.572V385.879H215.022V382.36H218.572V385.879H222.122V382.36H225.672V385.879H225.67ZM236.319 375.323H232.769V371.804H236.319V375.323Z" fill="#1A1A1A"/>
            <path d="M154.68 371.804V368.285H151.131V364.766H147.581V368.285V371.804H151.131V375.323H154.68V371.804Z" fill="#1A1A1A"/>
            <path d="M151.131 375.323H147.581V378.842V382.36H151.131H154.68V378.842H151.131V375.323Z" fill="#1A1A1A"/>
            <path d="M154.68 389.398V385.879H151.131H147.581V389.398H151.131V392.917H154.68V389.398Z" fill="#1A1A1A"/>
            <path d="M151.131 392.917H147.581V396.436H151.131V392.917Z" fill="#1A1A1A"/>
            <path d="M239.869 396.436V399.954V403.473H243.419V399.954V396.436V392.917V389.398H239.869V392.917H236.319V396.436H239.869Z" fill="#1A1A1A"/>
            <path d="M179.527 396.436H175.977V399.955H179.527V396.436Z" fill="#1A1A1A"/>
            <path d="M179.527 399.954V403.473V406.993H183.076V410.511V414.03H179.527V417.549H183.076H186.626H190.176V414.03H193.724H197.274V410.511V406.993H193.724H190.176V410.511H186.626V406.993H190.176V403.473H186.626V399.954H183.076H179.527Z" fill="#1A1A1A"/>
            <path d="M151.131 403.473V399.954H147.581V403.473V406.993V410.511H151.131V406.993H154.68V410.511H158.23V406.993V403.473H154.68H151.131Z" fill="#1A1A1A"/>
            <path d="M179.527 414.03V410.511V406.993H175.977V410.511H172.427V414.03V417.549H175.977V414.03H179.527Z" fill="#1A1A1A"/>
            <path d="M204.374 410.511H200.824V414.03H204.374V410.511Z" fill="#1A1A1A"/>
            <path d="M161.78 414.03H158.23H154.68H151.13H147.58V417.549V421.068V424.588V428.107V431.626V435.145H151.13H154.68H158.23H161.78H165.33H168.879V431.626V428.107V424.588V421.068V417.549V414.03H165.33H161.78ZM165.328 421.067V424.587V428.106V431.625H161.779H158.229H154.679H151.129V428.106V424.587V421.067V417.548H154.679H158.229H161.779H165.328V421.067Z" fill="#1A1A1A"/>
            <path d="M215.022 414.03H211.473H207.923V417.549H211.473V421.067H215.022H218.572V417.549H215.022V414.03Z" fill="#1A1A1A"/>
            <path d="M236.319 417.549V421.067H239.869V424.587H243.419V421.067V417.549V414.03H239.869V417.549H236.319Z" fill="#1A1A1A"/>
            <path d="M154.68 421.067V424.587V428.106H158.23H161.78V424.587V421.067H158.23H154.68Z" fill="#1A1A1A"/>
            <path d="M193.724 421.067H197.274V417.549H193.724H190.176V421.067H186.626H183.076V424.587V428.106H179.527V431.624H183.076V435.143H186.626H190.176V431.624H186.626V428.106H190.176H193.724H197.274V424.587H193.724V421.067Z" fill="#1A1A1A"/>
            <path d="M207.923 421.067V417.549H204.373H200.824V421.067H197.274V424.587H200.824H204.373H207.923H211.473V421.067H207.923Z" fill="#1A1A1A"/>
            <path d="M179.527 424.587V421.067V417.549H175.977V421.067H172.427V424.587H175.977V428.106H179.527V424.587Z" fill="#1A1A1A"/>
            <path d="M218.572 424.587H215.022H211.473V428.106V431.624V435.143H215.022V431.624H218.572V428.106V424.587Z" fill="#1A1A1A"/>
            <path d="M232.77 424.587V428.106V431.624H229.22V435.143H232.77H236.319V431.624H239.869V435.143H243.419V431.624V428.106H239.869V424.587H236.319H232.77Z" fill="#1A1A1A"/>
            <path d="M175.977 428.106H172.427V431.624V435.143H175.977H179.527V431.624H175.977V428.106Z" fill="#1A1A1A"/>
            <path d="M225.67 428.106H222.122V431.624H218.572V435.143H222.122H225.67V431.624H229.22V428.106H225.67Z" fill="#1A1A1A"/>
            <path d="M193.724 431.624V435.143H197.274H200.824V431.624H204.373V435.143H207.923V431.624V428.106H204.373H200.824H197.274V431.624H193.724Z" fill="#1A1A1A"/>
        </g>
    </g>
    <defs>
        <clipPath id="clip0_79_126">
            <rect width="390" height="844" rx="25" fill="white"/>
        </clipPath>
        <clipPath id="clip1_79_126">
            <rect width="62" height="64" fill="white" transform="translate(277 212)"/>
        </clipPath>
        <clipPath id="clip2_79_126">
            <rect width="62" height="64" fill="white" transform="translate(50 594)"/>
        </clipPath>
        <clipPath id="clip3_79_126">
            <rect width="289.277" height="166" fill="white" transform="translate(339.277 193) rotate(-180)"/>
        </clipPath>
        <clipPath id="clip4_79_126">
            <rect width="289.277" height="166" fill="white" transform="translate(50 643)"/>
        </clipPath>
        <clipPath id="clip5_79_126">
            <rect width="133" height="192" fill="white" transform="translate(129 326)"/>
        </clipPath>
    </defs>
</svg>
